<svg id="Layer_1" data-name="Layer 1" xmlns="http://www.w3.org/2000/svg" viewBox="0 0 274.74 154.7"><defs><style>.cls-1{fill:#e3342f;}</style></defs><title>logo</title><path d="M285.75,306.49c-1.61.17-3.24.25-4.84.53a24.4,24.4,0,0,0-13.61,7.07,40.8,40.8,0,0,0-12.13,29.47,33.45,33.45,0,0,0,2.47,12.27c2.75,6.95,7.75,11.34,15.08,12.88,10.23,2.15,19.27,0,26.74-7.62a44,44,0,0,0,8.27-11.7,140.78,140.78,0,0,0,9.06-25.59c3.28-12.41,5.55-25,7.72-37.66,2.14-12.43,4-24.93,7.43-37.1a83.2,83.2,0,0,1,5.54-15.17c1.26-2.47,2.79-4.8,4.26-7.31-1.93.8-3.86,1.52-5.72,2.39a66.25,66.25,0,0,0-23.34,17.45A27.28,27.28,0,0,0,306,263.62a5.77,5.77,0,0,0,0,.72c.15,2.47.53,4.79,3.62,5.24a2.4,2.4,0,0,1-1.94,2.12c-3.32.95-7.38-1.22-8.94-4.85a15.35,15.35,0,0,1-.52-9.31c1.22-6,4.63-10.82,8.91-15a76.39,76.39,0,0,1,39.49-20.83,40.62,40.62,0,0,1,6.8-.58,2.57,2.57,0,0,1,2.94,2.67c-4.79.46-7.16,3.87-9.11,7.71a54.19,54.19,0,0,0-4.8,16.13c-1.76,11-3.52,22-5.19,33-1.16,7.7-2,15.44-3.24,23.14-2.56,16.64-7.08,32.7-14.58,47.82-4.9,9.88-12.16,17.44-22.62,21.4-8.37,3.18-17.1,3.86-25.63,1-12.2-4.14-18.92-13-20.3-25.81A65.42,65.42,0,0,1,253.2,323a34.35,34.35,0,0,1,13.36-18.52,22,22,0,0,1,13.27-4.18A5.84,5.84,0,0,1,285.75,306.49Z" transform="translate(-250.55 -221.1)"/><path class="cls-1" d="M481.25,297.68c-.39,3-.75,5.6-1.05,8.22a1.79,1.79,0,0,0,.34,1.07c1.54,2.19,3,4.44,4.71,6.51a14.68,14.68,0,0,1,2.86,6.48c.47,2.23,1.07,4.43,1.53,6.66a4.35,4.35,0,0,1,0,2.21,2.31,2.31,0,0,1-2.32,1.58,2.38,2.38,0,0,1-2.37-1.7c-.38-1.09-.59-2.24-.86-3.36-.49-2.06-1-4.12-1.47-6.18a2.79,2.79,0,0,0-.37-1c-1.31-1.86-2.64-3.69-4.17-5.81-.42,1.64-.88,3-1.1,4.37a16.4,16.4,0,0,1-3,6.81c-1.17,1.67-2.19,3.44-3.3,5.15s-2.49,2.21-3.87,1.29-1.55-2.37-.45-4.08,1.92-3.25,3.08-4.72c1.92-2.46,2.55-5.36,3.22-8.27.27-1.21.57-2.41.86-3.62s.73-2.34.07-3.59a3.06,3.06,0,0,1,0-1.65c.49-4.24,1-8.48,1.52-12.73a4.94,4.94,0,0,1,2.18-3.56c1.43-1,3.72-.19,4.41,1.91.95,2.85,3,5,4.5,7.43a3.36,3.36,0,0,0,1.66,1.19c1.72.63,3.54,1,5.23,1.72a3.09,3.09,0,0,1,1.6,1.71,4.41,4.41,0,0,0,3.68,2.92h25a7.76,7.76,0,0,1,1.08,0c.82.14,1.25.55.82,1.42q-3.68,7.28-7.33,14.56a1.56,1.56,0,0,1-1.62.93c-5.56,0-11.12,0-16.68,0-1.18,0-1.59-.49-1.7-1.62-.45-4.45-1-8.89-1.5-13.33-.12-1.05-2.29-2.69-3.32-2.57-.08,0-.17.06-.23,0-2.93-.88-5.9-1.67-8.75-2.74-.76-.29-1.18-1.46-1.75-2.23C482,298.75,481.71,298.36,481.25,297.68Zm16.88,8.74c-.16,2-.09,2.06,1.64,2.06h20.52c2,0,2,0,2.59-2.06Zm22.75,3.9H498.54c-.07,2-.07,2,1.76,2h18.34C520.33,312.29,520.43,312.2,520.88,310.32ZM499,314.15c-.2,1.85-.11,2,1.56,2h15.94c1.81,0,1.91-.08,2.43-2Zm18,3.73H499.48c-.19,1.91-.12,2,1.67,2h13.78C516.47,319.87,516.73,319.63,517,317.88Z" transform="translate(-250.55 -221.1)"/><path d="M385.6,305a13.16,13.16,0,0,0-1,1.09c-2.23,3.26-4.4,6.57-6.71,9.78a14.25,14.25,0,0,1-2.91,2.84,4.18,4.18,0,0,1-6.65-1.74,13.77,13.77,0,0,1-.85-7.42,31.21,31.21,0,0,1,6.3-15.84c2.23-2.88,5-5.08,8.8-5.5a4.88,4.88,0,0,1,5.31,2.83c.26.62.37,1.24-.34,1.53a1.19,1.19,0,0,1-1.71-.56c-1.19-2.27-3-2.86-5.15-1.44a10.86,10.86,0,0,0-3.17,3.2,37.9,37.9,0,0,0-5.79,20.83c0,1,0,2.26,1.14,2.7s2-.46,2.64-1.25a54.82,54.82,0,0,0,4.64-6.24c2.83-4.73,5.43-9.59,8.15-14.39a18.84,18.84,0,0,1,1.9-3,4.34,4.34,0,0,1,2.08-1.26,1.18,1.18,0,0,1,1.4,1.74,56.45,56.45,0,0,0-3.82,12.82c-1,4.92-1.9,9.88-2.86,14.9.86.29,1.7.52,2.49.85a4.8,4.8,0,0,1,3.2,4.86c0,1.28-.51,1.95-2,2.55.28-3.2-1-5.32-4.14-6.12-.81,2.26-1.51,4.47-2.38,6.6a22.83,22.83,0,0,1-5.08,8.06,13.31,13.31,0,0,1-12.64,3.42,5.41,5.41,0,0,1-3.83-3c-.13-.26.05-.67.09-1,.39.06,1,0,1.15.2,1.16,2.28,3.19,2.71,5.45,2.74a9.09,9.09,0,0,0,7.27-3.08,19.49,19.49,0,0,0,2.36-3.45,38.33,38.33,0,0,0,3.83-11c-1.85.25-3.59.38-5.27.73a20.28,20.28,0,0,0-12.11,7.64c-.12.16-.22.41-.38.46a10.26,10.26,0,0,1-1.25.26c.05-.38,0-.86.16-1.13a22.21,22.21,0,0,1,11.89-8.47,50,50,0,0,1,6.47-1.13c.59-.09.92-.2,1-.87.79-4.73,1.63-9.45,2.44-14.17C385.82,305.42,385.76,305.35,385.6,305Z" transform="translate(-250.55 -221.1)"/><path d="M283.83,344.56c-1.32.7-2.33,1.42-2.63,3.05a4.63,4.63,0,0,1-1.86,2.52c-3.16,2.3-6.4,4.51-9.69,6.64a6.3,6.3,0,0,1-3,1,3.38,3.38,0,0,1-3.46-4.67,6.65,6.65,0,0,1,2.21-2.85c3-2.21,6.12-4.22,9.19-6.32a5.09,5.09,0,0,1,4.19-1c1.38.35,2.07-.75,3.13-1.35a12.72,12.72,0,0,1,.21-11.67,12.22,12.22,0,0,1,6.45-5.83,12.54,12.54,0,0,1,15.51,5.26,12.72,12.72,0,0,1-20.24,15.22Zm9.41.41a9,9,0,1,0-9-9A9,9,0,0,0,293.24,345Z" transform="translate(-250.55 -221.1)"/><path d="M424,321.42c.08,1.77-1.68,4.62-3.16,5.22a3,3,0,0,1-3.51-1.14,16.45,16.45,0,0,1-2-4.4c-1.18-4.16-.8-8.41-.41-12.63.08-.87.2-1.73.3-2.59l-.32-.19c-.28.34-.59.66-.85,1-2.13,3.09-4.19,6.23-6.42,9.24a13.47,13.47,0,0,1-3.15,2.92,4,4,0,0,1-6.05-1.46,9.37,9.37,0,0,1-1.09-3.63,29,29,0,0,1,7.53-21.58,11.34,11.34,0,0,1,7.54-4.06,4.93,4.93,0,0,1,5.3,2.86c.27.64.34,1.23-.36,1.52a1.2,1.2,0,0,1-1.71-.58c-1.2-2.26-3-2.86-5.15-1.42a11.46,11.46,0,0,0-3.3,3.39,38,38,0,0,0-5.66,20.16,8.14,8.14,0,0,0,.38,2.35,1.17,1.17,0,0,0,1.9.7,7.53,7.53,0,0,0,2-1.7,60.94,60.94,0,0,0,4.34-6c2.79-4.7,5.38-9.52,8.1-14.27a21.17,21.17,0,0,1,2.19-3.13,3,3,0,0,1,1.65-.85c1.2-.24,1.87.61,1.35,1.73-2.21,4.72-3.26,9.77-4.19,14.83a45.59,45.59,0,0,0-.63,14.32c.15,1.09.28,2.45,1.66,2.6s1.85-1.05,2.37-2.05C422.86,322,422.89,321.16,424,321.42Z" transform="translate(-250.55 -221.1)"/><path d="M343.41,309.41c.22-.43.46-.84.67-1.27,1.94-3.85,3.69-7.81,5.89-11.5a32.06,32.06,0,0,1,5.13-5.94,6.28,6.28,0,0,1,4.84-1.73c2.2.1,3.34,1.64,2.7,3.76A88,88,0,0,0,359,310.65a53.48,53.48,0,0,0,.16,9.55c.2,2.13,1.42,2.47,3.17,1.24a2.65,2.65,0,0,1,.5-.32,5.55,5.55,0,0,1,.7-.16,3.91,3.91,0,0,1-1.89,2.8,2.33,2.33,0,0,1-3,.1,7.15,7.15,0,0,1-1.93-2.37A19.67,19.67,0,0,1,355,313.1a74.35,74.35,0,0,1,2.48-19.69,3.93,3.93,0,0,0,.18-.81c0-.3,0-.73-.13-.85a1,1,0,0,0-.88,0,3.77,3.77,0,0,0-1.22.94,64.72,64.72,0,0,0-4.39,5.82,88.68,88.68,0,0,0-8,17c-.24.68-.37,1.39-.63,2.06-.14.36-.42.88-.69.92a1.5,1.5,0,0,1-1.24-.44,4.59,4.59,0,0,1-.79-2.21,91.71,91.71,0,0,1,.31-10.88,116,116,0,0,1,2.34-11.59,11.38,11.38,0,0,1,1.27-2.83,3.53,3.53,0,0,1,1.24-1.43,2.27,2.27,0,0,1,1.83-.26c.35.21.47,1.2.35,1.76-1.18,5.46-2.44,10.9-3.66,16.35-.17.77-.21,1.56-.31,2.34Z" transform="translate(-250.55 -221.1)"/><path d="M432.18,309.4c.21-.37.44-.74.63-1.12,1.92-3.82,3.62-7.75,5.81-11.41a33.33,33.33,0,0,1,5.26-6.15,6.3,6.3,0,0,1,4.95-1.75,2.69,2.69,0,0,1,2.61,3.73,90,90,0,0,0-3.69,17.92,85.43,85.43,0,0,0,.05,9.19,3.32,3.32,0,0,0,.3,1.15,1.54,1.54,0,0,0,2.58.8l1.6-1a4,4,0,0,1-2.16,3.18,2.25,2.25,0,0,1-2.8-.12,7.16,7.16,0,0,1-1.84-2.29,19.89,19.89,0,0,1-1.69-8.51,75.12,75.12,0,0,1,2.49-19.68,6.6,6.6,0,0,0,0-1.66c-.56.22-1.32.28-1.66.69a50.09,50.09,0,0,0-4.57,5.83,86.27,86.27,0,0,0-8.4,17.71c-.18.53-.26,1.1-.48,1.61s-.42.93-.67.94a1.73,1.73,0,0,1-1.33-.5,4.82,4.82,0,0,1-.74-2.1,57.85,57.85,0,0,1,1.12-16.45,60.75,60.75,0,0,1,2.21-7.69,6.62,6.62,0,0,1,1.73-2.53,2.27,2.27,0,0,1,1.93-.39c.83.29.58,1.18.37,1.88a112.79,112.79,0,0,0-3.9,17.89c0,.22,0,.46,0,.68Z" transform="translate(-250.55 -221.1)"/><path d="M450.39,335.42a30.9,30.9,0,0,1,2.92-10.11q2.74-6.18,5.93-12.15a16.08,16.08,0,0,0,1.35-5.26q1.11-6.6,2.41-13.17a7.82,7.82,0,0,1,1.25-2.83,5.48,5.48,0,0,1,2.05-1.71,2,2,0,0,1,1.84.21,2.26,2.26,0,0,1,.18,1.82c-.95,3.5-2.24,6.93-2.92,10.48-.9,4.61-1.33,9.32-2,14-.72,5.17-1.16,10.42-2.92,15.38a27.75,27.75,0,0,1-3,5.67,4.33,4.33,0,0,1-3.58,1.89c-2.17.09-3.28-.87-3.47-3C450.41,336.19,450.41,335.79,450.39,335.42Zm9.39-20.58a7.58,7.58,0,0,0-.51.76c-1.69,3.83-3.55,7.6-5,11.52a58.67,58.67,0,0,0-2.09,8.33,1.77,1.77,0,0,0,1,2.29,2,2,0,0,0,2.49-1.17,14.39,14.39,0,0,0,1.48-3.51A113.43,113.43,0,0,0,459.78,314.84Z" transform="translate(-250.55 -221.1)"/><path class="cls-1" d="M481.94,287.33a5.4,5.4,0,0,1-5.3-5.4,5.39,5.39,0,1,1,10.77.15A5.45,5.45,0,0,1,481.94,287.33Z" transform="translate(-250.55 -221.1)"/><path class="cls-1" d="M499.43,328.67a3.26,3.26,0,1,1,.1-6.51,3.33,3.33,0,0,1,3.2,3.23A3.37,3.37,0,0,1,499.43,328.67Zm.16-1.71a1.55,1.55,0,0,0-.19-3.09,1.52,1.52,0,0,0-1.54,1.52A1.63,1.63,0,0,0,499.59,327Z" transform="translate(-250.55 -221.1)"/><path class="cls-1" d="M515.81,328.67a3.37,3.37,0,0,1-3.29-3.29,3.29,3.29,0,0,1,6.57,0A3.39,3.39,0,0,1,515.81,328.67Zm0-1.71a1.55,1.55,0,0,0,1.59-1.58,1.56,1.56,0,0,0-3.12-.06A1.55,1.55,0,0,0,515.77,327Z" transform="translate(-250.55 -221.1)"/><path d="M470.56,276.49c1.07,0,1.79.75,1.38,1.68a55.66,55.66,0,0,1-2.88,5.45c-.06.12-.76.08-.94-.11-1.43-1.49,0-6.41,1.95-6.95C470.26,276.51,470.47,276.51,470.56,276.49Z" transform="translate(-250.55 -221.1)"/></svg>